<?xml version="1.0" encoding="UTF-8" standalone="no"?>
<svg
   xmlns:dc="http://purl.org/dc/elements/1.1/"
   xmlns:cc="http://creativecommons.org/ns#"
   xmlns:rdf="http://www.w3.org/1999/02/22-rdf-syntax-ns#"
   xmlns:svg="http://www.w3.org/2000/svg"
   xmlns="http://www.w3.org/2000/svg"
   xmlns:xlink="http://www.w3.org/1999/xlink"
   xmlns:sodipodi="http://sodipodi.sourceforge.net/DTD/sodipodi-0.dtd"
   xmlns:inkscape="http://www.inkscape.org/namespaces/inkscape"
   sodipodi:docname="halfopen.svg"
   inkscape:export-ydpi="15"
   inkscape:export-xdpi="15"
   inkscape:export-filename="/home/rohieb/Projects/StratumsphereTrayIcon.git/res/open-128.png"
   inkscape:version="1.0 (4035a4fb49, 2020-05-01)"
   version="1.1"
   id="svg3434"
   height="768"
   width="768">
  <defs
     id="defs3436">
    <linearGradient
       id="linearGradient5859">
      <stop
         id="stop5861"
         offset="0"
         style="stop-color:#fcf52c;stop-opacity:1" />
      <stop
         id="stop5863"
         offset="1"
         style="stop-color:#b78d00;stop-opacity:1" />
    </linearGradient>
    <inkscape:path-effect
       effect="spiro"
       id="path-effect3336-0-4"
       is_visible="true" />
    <radialGradient
       gradientUnits="userSpaceOnUse"
       r="284.69781"
       fy="1281.7788"
       fx="-1044.8134"
       cy="1281.7788"
       cx="-1044.8134"
       id="radialGradient5867"
       xlink:href="#linearGradient5859"
       inkscape:collect="always" />
  </defs>
  <sodipodi:namedview
     inkscape:document-rotation="0"
     inkscape:window-maximized="1"
     inkscape:window-y="20"
     inkscape:window-x="0"
     inkscape:window-height="878"
     inkscape:window-width="1598"
     inkscape:guide-bbox="true"
     showguides="true"
     showgrid="false"
     inkscape:current-layer="g3350"
     inkscape:document-units="px"
     inkscape:cy="396.50183"
     inkscape:cx="388.12229"
     inkscape:zoom="0.2930791"
     inkscape:pageshadow="2"
     inkscape:pageopacity="0"
     borderopacity="1.0"
     bordercolor="#666666"
     pagecolor="#ffffff"
     id="base" />
  <metadata
     id="metadata3439">
    <rdf:RDF>
      <cc:Work
         rdf:about="">
        <dc:format>image/svg+xml</dc:format>
        <dc:type
           rdf:resource="http://purl.org/dc/dcmitype/StillImage" />
        <dc:title></dc:title>
      </cc:Work>
    </rdf:RDF>
  </metadata>
  <g
     transform="translate(0,-284.36218)"
     id="layer1"
     inkscape:groupmode="layer"
     inkscape:label="Layer 1">
    <g
       id="g3350"
       transform="matrix(3.1705779,0,0,3.1705779,15231.132,-1164.2451)"
       style="display:inline">
      <circle
         r="284.69781"
         cy="1281.7788"
         cx="-1044.8134"
         style="fill:url(#radialGradient5867);fill-opacity:1.0;stroke:none;stroke-width:1.00014935;stroke-miterlimit:4;stroke-dasharray:none"
         id="path3348"
         transform="matrix(0.42541095,0,0,0.42541095,-4238.3092,32.721447)" />
      <path
         id="path3332"
         style="fill:#ffffff;fill-opacity:1;fill-rule:evenodd;stroke:none"
         inkscape:path-effect="#path-effect3336-0-4"
         inkscape:original-d="m -4662.6325,562.65153 c 0,0 -5.8299,-17.53109 -0.7651,-15.55596 14.9146,5.81621 5.1003,-17.34113 5.1003,-17.34113 0,0 5.5115,10.99092 10.9657,16.57607 5.179,5.30323 16.3211,10.71067 16.3211,10.71067 0,0 -10.8813,6.71391 -17.3411,7.14039 -4.7771,0.31551 -14.2809,-1.53004 -14.2809,-1.53004 z m -67.4318,59.24011 c 5.4023,5.64654 19.0255,13.69835 19.0255,13.69835 l -1.9036,-28.53557 -27.5858,-1.14041 c 0,0 6.0627,11.3775 10.4639,15.97763 z m 38.1914,-22.17615 c -0.8476,9.76563 -1.104,19.9071 -4.6876,29.03088 -2.7635,7.03575 -9.3666,15.25641 -12.5875,18.86281 0,0 -19.6287,-10.02529 -26.9777,-17.49325 -7.0115,-7.12487 -16.7959,-27.04302 -16.7959,-27.04302 3.3395,-3.2391 12.0842,-11.50547 19.1602,-15.80297 4.7902,-2.90915 10.1958,-4.69087 15.4732,-6.57711 4.7349,-1.69236 14.4779,-4.23545 14.4779,-4.23545 -8.1698,-3.08241 -13.6726,-4.4813 -20.7599,-4.60874 -5.1064,-0.0918 -10.3409,0.84516 -15.0671,2.78074 -10.7861,4.41732 -20.6784,11.39421 -28.9596,19.5962 -2.071,2.05127 -4.9699,7.19532 -4.9699,7.19532 11.6721,11.67207 14.0244,31.39535 25.9654,43.22375 11.5049,11.3963 31.8229,14.56455 41.8799,24.62159 11.8011,-8.55208 21.0599,-22.03197 26.3094,-33.57106 5.261,-11.56425 5.1116,-25.0059 5.8441,-34.87915 0.7324,-9.87332 1.7292,-15.08411 -0.4304,-24.03311 -1.8796,-7.78868 -0.328,-13.2241 0.3027,-20.49002 0.8477,-9.76556 1.104,-19.9071 4.6877,-29.03081 2.7634,-7.03582 9.3665,-15.25648 12.5875,-18.86281 0,0 19.6286,10.02529 26.9776,17.49317 7.0115,7.12495 16.796,27.0431 16.796,27.0431 -3.3395,3.2391 -12.0842,11.50547 -19.1602,15.80298 -4.7902,2.90914 -10.1959,4.69087 -15.4732,6.5771 -4.735,1.69229 -14.478,4.23538 -14.478,4.23538 8.1699,3.08248 13.6726,4.48137 20.7599,4.60881 5.1064,0.0918 10.3409,-0.84516 15.0671,-2.78081 10.7862,-4.41725 20.6784,-11.39414 28.9596,-19.5962 2.071,-2.05127 4.9699,-7.19525 4.9699,-7.19525 -11.672,-11.67207 -14.0244,-31.39542 -25.9654,-43.22382 -11.5049,-11.3963 -31.8229,-14.56448 -41.8799,-24.62152 -11.8012,8.55202 -21.0599,22.03192 -26.3094,33.57099 -5.261,11.56425 -4.9699,23.1232 -5.844,34.87922 -0.6285,8.45159 -1.7293,15.08411 0.4303,24.03304 1.8796,7.78876 0.328,13.2241 -0.3027,20.49002 z"
         d="m -4662.6325,562.65153 c -1.0568,-5.10418 -1.316,-10.37271 -0.7651,-15.55596 0.6402,-6.024 2.3772,-11.92974 5.1003,-17.34113 2.4733,6.19603 6.2309,11.87608 10.9657,16.57607 4.6495,4.61531 10.2367,8.28191 16.3211,10.71067 -4.954,3.94849 -11.0432,6.45577 -17.3411,7.14039 -4.7964,0.52139 -9.7038,-0.004 -14.2809,-1.53004 z m -67.4318,59.24011 c 5.3307,5.78733 11.8462,10.47852 19.0255,13.69835 l -1.9036,-28.53557 -27.5858,-1.14041 c 2.5802,5.8516 6.1312,11.27377 10.4639,15.97763 z m 38.1914,-22.17615 c -0.4068,9.83842 -1.1789,19.83039 -4.6876,29.03088 -2.7162,7.12234 -7.053,13.6212 -12.5875,18.86281 -10.1343,-3.74862 -19.4206,-9.77017 -26.9777,-17.49325 -7.481,-7.64532 -13.2588,-16.94818 -16.7959,-27.04302 5.3242,-6.40315 11.8609,-11.79453 19.1602,-15.80297 4.9187,-2.70112 10.1603,-4.77073 15.4732,-6.57711 4.7621,-1.61911 9.594,-3.03268 14.4779,-4.23545 -6.4024,-3.20622 -13.6022,-4.8046 -20.7599,-4.60874 -5.1232,0.14019 -10.197,1.1841 -15.0671,2.78074 -11.2284,3.68122 -21.5178,10.41746 -28.9596,19.5962 -1.8376,2.26649 -3.5007,4.67436 -4.9699,7.19532 4.8099,16.29462 13.8387,31.3245 25.9654,43.22375 11.6746,11.45556 26.1929,19.99102 41.8799,24.62159 11.8635,-8.22012 21.1632,-20.0866 26.3094,-33.57106 4.2249,-11.07042 5.6613,-23.03134 5.8441,-34.87915 0.1236,-8.01194 -0.3094,-16.02113 -0.4304,-24.03311 -0.1032,-6.83088 0.02,-13.66419 0.3027,-20.49002 0.4069,-9.8384 1.179,-19.83034 4.6877,-29.03081 2.7162,-7.12233 7.053,-13.62118 12.5875,-18.86281 10.1342,3.74862 19.4205,9.77013 26.9776,17.49317 7.4811,7.64534 13.2589,16.94822 16.796,27.0431 -5.3242,6.40315 -11.8609,11.79453 -19.1602,15.80298 -4.9187,2.70113 -10.1603,4.77074 -15.4732,6.5771 -4.7621,1.6191 -9.5941,3.03265 -14.478,4.23538 6.4024,3.20628 13.6022,4.80469 20.7599,4.60881 5.1232,-0.1402 10.197,-1.18415 15.0671,-2.78081 11.2284,-3.68127 21.5178,-10.41749 28.9596,-19.5962 1.8376,-2.26647 3.5007,-4.67432 4.9699,-7.19525 -4.8099,-16.29465 -13.8387,-31.32456 -25.9654,-43.22382 -11.6746,-11.45555 -26.1929,-19.99098 -41.8799,-24.62152 -11.8636,8.22005 -21.1633,20.08652 -26.3094,33.57099 -4.2249,11.07045 -5.6611,23.03139 -5.844,34.87922 -0.1237,8.01192 0.3093,16.02108 0.4303,24.03304 0.1032,6.83088 -0.02,13.66419 -0.3027,20.49002 z"
         inkscape:connector-curvature="0"
         sodipodi:nodetypes="cscscscscccssscscsscssscscssssscscsscssscscssss" />
    </g>
  </g>
</svg>
